<?xml version="1.0" standalone="no"?>
<!DOCTYPE svg PUBLIC "-//W3C//DTD SVG 20010904//EN"
 "http://www.w3.org/TR/2001/REC-SVG-20010904/DTD/svg10.dtd">
<svg version="1.0" xmlns="http://www.w3.org/2000/svg"
 width="819.000000pt" height="819.000000pt" viewBox="0 0 819.000000 819.000000"
 preserveAspectRatio="xMidYMid meet">
<metadata>
Created by potrace 1.14, written by Peter Selinger 2001-2017
</metadata>
<g transform="translate(0.000000,819.000000) scale(0.100000,-0.100000)"
fill="#000000" stroke="none">
<path d="M3879 8186 c-2 -2 -50 -7 -105 -10 -56 -3 -108 -8 -115 -10 -8 -3
-41 -7 -74 -10 -135 -11 -399 -64 -598 -120 -197 -56 -526 -177 -564 -208 -7
-6 -13 -8 -13 -5 0 9 -264 -124 -268 -134 -2 -5 -9 -9 -16 -9 -39 0 -533 -329
-622 -414 -6 -6 -36 -31 -65 -56 -140 -116 -375 -351 -461 -461 -14 -19 -45
-54 -67 -79 -22 -25 -41 -48 -41 -51 0 -3 -27 -39 -60 -80 -33 -41 -60 -80
-60 -86 0 -7 -4 -13 -10 -13 -5 0 -10 -5 -10 -11 0 -6 -6 -17 -13 -24 -29 -33
-37 -45 -37 -55 0 -5 -4 -10 -10 -10 -5 0 -10 -5 -10 -11 0 -6 -11 -25 -25
-43 -14 -18 -25 -36 -25 -40 0 -4 -13 -27 -30 -51 -16 -24 -30 -47 -30 -50 0
-4 -9 -20 -21 -36 -11 -16 -17 -29 -12 -29 4 0 3 -4 -2 -8 -6 -4 -24 -34 -40
-67 -17 -33 -33 -62 -38 -63 -4 -2 -5 -8 -1 -13 3 -5 0 -9 -5 -9 -6 0 -11 -6
-11 -12 0 -7 -15 -44 -34 -83 -19 -38 -41 -86 -49 -105 -8 -19 -25 -57 -37
-85 -12 -27 -23 -54 -24 -60 -1 -5 -7 -23 -13 -40 -16 -42 -21 -59 -19 -66 0
-3 -4 -12 -10 -20 -9 -11 -23 -50 -28 -79 -1 -3 -6 -18 -12 -35 -24 -65 -46
-142 -59 -205 -2 -8 -10 -40 -19 -70 -8 -30 -18 -68 -21 -85 -5 -34 -12 -68
-20 -105 -10 -45 -26 -139 -31 -180 -2 -14 -6 -47 -9 -75 -4 -27 -8 -63 -10
-80 -27 -205 -26 -763 1 -880 2 -11 6 -47 9 -80 6 -66 6 -69 30 -199 100 -560
315 -1090 634 -1565 96 -144 139 -202 158 -214 7 -4 13 -13 13 -20 0 -7 15
-28 33 -48 17 -20 52 -60 77 -89 129 -154 331 -356 465 -465 26 -22 55 -48 64
-57 8 -10 21 -18 27 -18 7 0 14 -3 16 -7 3 -9 48 -46 92 -78 15 -11 37 -28 48
-37 11 -10 29 -20 39 -23 11 -4 19 -11 19 -16 0 -5 6 -9 14 -9 8 0 16 -4 18
-8 4 -12 95 -72 107 -72 6 0 11 -3 11 -8 0 -4 17 -16 38 -27 20 -11 39 -22 42
-26 5 -6 85 -51 165 -93 22 -12 42 -24 45 -28 3 -3 18 -10 33 -13 15 -4 27
-11 27 -17 0 -5 4 -6 10 -3 5 3 10 1 10 -4 0 -6 3 -10 8 -9 4 1 43 -16 87 -37
44 -22 82 -40 85 -41 14 -3 68 -26 90 -38 14 -8 30 -15 35 -16 6 -1 21 -7 35
-12 14 -6 32 -11 40 -13 8 -2 16 -4 18 -5 1 -2 5 -3 10 -4 4 -1 24 -10 46 -19
21 -9 48 -19 60 -21 12 -2 38 -11 59 -19 21 -9 38 -16 40 -16 1 1 22 -5 47
-12 57 -16 60 -17 88 -23 12 -3 30 -8 40 -11 39 -11 139 -35 162 -40 14 -3 36
-7 50 -10 14 -3 36 -7 50 -10 14 -3 34 -7 45 -9 36 -7 109 -19 140 -22 17 -2
48 -6 70 -9 182 -24 264 -29 515 -29 226 0 359 6 440 19 14 2 52 6 85 10 33 3
67 8 75 10 8 2 38 6 65 10 230 29 642 147 926 266 142 59 363 168 367 180 2 5
9 9 17 9 33 0 443 266 531 345 7 5 24 19 40 30 15 11 38 30 51 42 13 11 43 36
65 55 119 95 362 338 470 469 20 24 45 55 57 69 31 37 34 42 61 80 13 19 35
46 47 60 13 14 23 28 23 31 0 3 11 19 25 35 14 16 25 33 25 37 0 4 5 13 10 20
51 60 61 75 66 95 4 12 9 22 13 22 3 0 15 17 26 38 11 20 22 39 25 42 8 8 28
42 47 80 9 19 20 37 24 40 3 3 14 23 24 45 10 22 25 48 33 58 8 9 11 17 7 17
-4 0 0 9 11 21 10 12 17 22 15 23 -2 0 12 35 31 76 45 95 72 154 73 160 1 3
11 25 22 50 18 41 34 83 39 103 1 4 3 9 4 12 1 3 3 8 5 13 1 4 7 21 14 37 7
17 14 35 15 40 1 6 4 15 7 20 4 6 10 24 14 40 5 17 9 35 11 40 2 6 15 48 29
95 14 47 27 94 30 105 2 11 15 65 29 120 13 55 27 116 30 135 3 19 8 46 11 60
3 14 7 43 10 65 3 22 7 51 10 65 3 14 7 45 10 70 3 25 7 61 10 80 26 200 27
719 0 888 -2 13 -7 53 -11 90 -3 37 -8 70 -10 74 -2 3 -7 28 -10 55 -28 237
-154 668 -284 968 -90 210 -246 493 -366 666 -115 166 -147 209 -155 209 -4 0
-10 8 -13 18 -4 9 -19 31 -34 48 -15 18 -45 53 -67 79 -133 157 -331 355 -475
475 -14 11 -34 29 -45 39 -18 16 -55 44 -149 114 -16 12 -35 28 -42 35 -7 6
-17 12 -23 12 -6 0 -11 5 -11 10 0 6 -7 10 -15 10 -8 0 -15 5 -15 10 0 6 -7
10 -15 10 -8 0 -15 4 -15 8 0 4 -14 17 -31 27 -17 11 -43 28 -58 38 -14 9 -34
20 -43 23 -10 4 -18 10 -18 15 0 5 -5 9 -11 9 -6 0 -29 13 -52 28 -23 16 -57
35 -74 43 -18 8 -33 18 -33 22 0 5 -4 5 -10 2 -5 -3 -10 -1 -10 4 0 6 -5 11
-11 11 -6 0 -24 9 -40 21 -16 11 -29 17 -29 13 0 -4 -9 1 -20 11 -11 10 -20
14 -20 10 0 -4 -8 -1 -17 8 -10 8 -21 16 -26 16 -4 0 -45 18 -90 39 -83 40
-105 49 -120 50 -4 0 -18 7 -30 15 -18 11 -109 49 -127 53 -9 1 -44 15 -65 25
-12 6 -27 11 -35 13 -8 2 -22 6 -30 9 -15 6 -91 30 -100 32 -3 1 -23 7 -45 13
-22 6 -42 11 -45 11 -3 0 -17 4 -33 10 -15 6 -38 13 -50 15 -12 3 -51 12 -87
21 -69 18 -90 22 -130 30 -14 3 -36 7 -50 10 -14 3 -40 8 -59 11 -18 3 -43 7
-54 10 -12 2 -39 6 -62 9 -22 4 -51 8 -65 10 -14 2 -56 7 -95 10 -38 4 -83 9
-100 11 -36 6 -551 14 -556 10z"/>
</g>
</svg>
